<?xml version="1.0" encoding="UTF-8"?>
<svg xmlns="http://www.w3.org/2000/svg" xmlns:xlink="http://www.w3.org/1999/xlink" width="800pt" height="771.553174pt" viewBox="0 0 800 771.553174" version="1.1">
<g id="surface1">
<path style=" stroke:none;fill-rule:nonzero;fill:rgb(43.921569%,50.196078%,56.470588%);fill-opacity:1;" d="M 800 771.554688 L 800 0 L 0 0 L 0 771.554688 Z M 800 771.554688 "/>
<path style=" stroke:none;fill-rule:nonzero;fill:rgb(65.098039%,85.882353%,62.745098%);fill-opacity:1;" d="M 79.667969 592.730469 C 79.667969 587.191406 75.175781 582.699219 69.636719 582.699219 C 64.097656 582.699219 59.605469 587.191406 59.605469 592.730469 C 59.605469 598.269531 64.097656 602.761719 69.636719 602.761719 C 75.175781 602.761719 79.667969 598.269531 79.667969 592.730469 Z M 79.667969 592.730469 "/>
<path style=" stroke:none;fill-rule:nonzero;fill:rgb(85.098039%,94.117647%,82.745098%);fill-opacity:1;" d="M 378.460938 526.570312 C 378.460938 521.03125 373.96875 516.539062 368.429688 516.539062 C 362.890625 516.539062 358.398438 521.03125 358.398438 526.570312 C 358.398438 532.109375 362.890625 536.601562 368.429688 536.601562 C 373.96875 536.601562 378.460938 532.109375 378.460938 526.570312 Z M 378.460938 526.570312 "/>
<path style=" stroke:none;fill-rule:nonzero;fill:rgb(96.862745%,96.862745%,96.862745%);fill-opacity:1;" d="M 56.484375 275.4375 C 56.484375 269.898438 51.992188 265.40625 46.453125 265.40625 C 40.914062 265.40625 36.421875 269.898438 36.421875 275.4375 C 36.421875 280.976562 40.914062 285.46875 46.453125 285.46875 C 51.992188 285.46875 56.484375 280.976562 56.484375 275.4375 Z M 56.484375 275.4375 "/>
<path style=" stroke:none;fill-rule:nonzero;fill:rgb(90.588235%,83.137255%,90.980392%);fill-opacity:1;" d="M 95.28125 678.839844 C 95.28125 673.300781 90.789062 668.808594 85.25 668.808594 C 79.710938 668.808594 75.21875 673.300781 75.21875 678.839844 C 75.21875 684.378906 79.710938 688.871094 85.25 688.871094 C 90.789062 688.871094 95.28125 684.378906 95.28125 678.839844 Z M 95.28125 678.839844 "/>
<path style=" stroke:none;fill-rule:nonzero;fill:rgb(76.078431%,64.705882%,81.176471%);fill-opacity:1;" d="M 29.140625 455.449219 C 29.140625 449.910156 24.648438 445.417969 19.109375 445.417969 C 13.570312 445.417969 9.078125 449.910156 9.078125 455.449219 C 9.078125 460.988281 13.570312 465.480469 19.109375 465.480469 C 24.648438 465.480469 29.140625 460.988281 29.140625 455.449219 Z M 29.140625 455.449219 "/>
<path style=" stroke:none;fill-rule:nonzero;fill:rgb(60%,43.921569%,67.058824%);fill-opacity:1;" d="M 556.742188 360.367188 C 556.742188 354.828125 552.25 350.335938 546.710938 350.335938 C 541.171875 350.335938 536.679688 354.828125 536.679688 360.367188 C 536.679688 365.90625 541.171875 370.398438 546.710938 370.398438 C 552.25 370.398438 556.742188 365.90625 556.742188 360.367188 Z M 556.742188 360.367188 "/>
<path style=" stroke:none;fill-rule:nonzero;fill:rgb(46.27451%,16.470588%,51.372549%);fill-opacity:1;" d="M 559.007812 667.65625 C 559.007812 662.117188 554.515625 657.625 548.976562 657.625 C 543.4375 657.625 538.945312 662.117188 538.945312 667.65625 C 538.945312 673.195312 543.4375 677.6875 548.976562 677.6875 C 554.515625 677.6875 559.007812 673.195312 559.007812 667.65625 Z M 559.007812 667.65625 "/>
<path style=" stroke:none;fill-rule:nonzero;fill:rgb(25.098039%,0%,29.411765%);fill-opacity:1;" d="M 318.175781 757.511719 C 318.175781 751.972656 313.683594 747.480469 308.144531 747.480469 C 302.605469 747.480469 298.113281 751.972656 298.113281 757.511719 C 298.113281 763.050781 302.605469 767.542969 308.144531 767.542969 C 313.683594 767.542969 318.175781 763.050781 318.175781 757.511719 Z M 318.175781 757.511719 "/>
<path style=" stroke:none;fill-rule:nonzero;fill:rgb(0%,26.666667%,10.588235%);fill-opacity:1;" d="M 565.125 554.902344 C 565.125 549.363281 560.632812 544.871094 555.09375 544.871094 C 549.554688 544.871094 545.0625 549.363281 545.0625 554.902344 C 545.0625 560.441406 549.554688 564.933594 555.09375 564.933594 C 560.632812 564.933594 565.125 560.441406 565.125 554.902344 Z M 565.125 554.902344 "/>
<path style=" stroke:none;fill-rule:nonzero;fill:rgb(10.588235%,47.058824%,21.568627%);fill-opacity:1;" d="M 246.039062 344.707031 C 246.039062 339.167969 241.546875 334.675781 236.007812 334.675781 C 230.46875 334.675781 225.976562 339.167969 225.976562 344.707031 C 225.976562 350.246094 230.46875 354.738281 236.007812 354.738281 C 241.546875 354.738281 246.039062 350.246094 246.039062 344.707031 Z M 246.039062 344.707031 "/>
<path style=" stroke:none;fill-rule:nonzero;fill:rgb(35.294118%,68.235294%,38.039216%);fill-opacity:1;" d="M 717.351562 115.003906 C 717.351562 109.464844 712.859375 104.972656 707.320312 104.972656 C 701.78125 104.972656 697.289062 109.464844 697.289062 115.003906 C 697.289062 120.542969 701.78125 125.035156 707.320312 125.035156 C 712.859375 125.035156 717.351562 120.542969 717.351562 115.003906 Z M 717.351562 115.003906 "/>
<path style=" stroke:none;fill-rule:nonzero;fill:rgb(65.098039%,85.882353%,62.745098%);fill-opacity:1;" d="M 351.363281 455.546875 C 351.363281 450.007812 346.871094 445.515625 341.332031 445.515625 C 335.792969 445.515625 331.300781 450.007812 331.300781 455.546875 C 331.300781 461.085938 335.792969 465.578125 341.332031 465.578125 C 346.871094 465.578125 351.363281 461.085938 351.363281 455.546875 Z M 351.363281 455.546875 "/>
<path style=" stroke:none;fill-rule:nonzero;fill:rgb(85.098039%,94.117647%,82.745098%);fill-opacity:1;" d="M 328.507812 539.320312 C 328.507812 533.78125 324.015625 529.289062 318.476562 529.289062 C 312.9375 529.289062 308.445312 533.78125 308.445312 539.320312 C 308.445312 544.859375 312.9375 549.351562 318.476562 549.351562 C 324.015625 549.351562 328.507812 544.859375 328.507812 539.320312 Z M 328.507812 539.320312 "/>
<path style=" stroke:none;fill-rule:nonzero;fill:rgb(96.862745%,96.862745%,96.862745%);fill-opacity:1;" d="M 438.167969 181.746094 C 438.167969 176.207031 433.675781 171.714844 428.136719 171.714844 C 422.597656 171.714844 418.105469 176.207031 418.105469 181.746094 C 418.105469 187.285156 422.597656 191.777344 428.136719 191.777344 C 433.675781 191.777344 438.167969 187.285156 438.167969 181.746094 Z M 438.167969 181.746094 "/>
<path style=" stroke:none;fill-rule:nonzero;fill:rgb(90.588235%,83.137255%,90.980392%);fill-opacity:1;" d="M 393.5 307.699219 C 393.5 302.160156 389.007812 297.667969 383.46875 297.667969 C 377.929688 297.667969 373.4375 302.160156 373.4375 307.699219 C 373.4375 313.238281 377.929688 317.730469 383.46875 317.730469 C 389.007812 317.730469 393.5 313.238281 393.5 307.699219 Z M 393.5 307.699219 "/>
<path style=" stroke:none;fill-rule:nonzero;fill:rgb(76.078431%,64.705882%,81.176471%);fill-opacity:1;" d="M 635.769531 144.1875 C 635.769531 138.648438 631.277344 134.15625 625.738281 134.15625 C 620.199219 134.15625 615.707031 138.648438 615.707031 144.1875 C 615.707031 149.726562 620.199219 154.21875 625.738281 154.21875 C 631.277344 154.21875 635.769531 149.726562 635.769531 144.1875 Z M 635.769531 144.1875 "/>
<path style=" stroke:none;fill-rule:nonzero;fill:rgb(60%,43.921569%,67.058824%);fill-opacity:1;" d="M 161.367188 373.632812 C 161.367188 368.09375 156.875 363.601562 151.335938 363.601562 C 145.796875 363.601562 141.304688 368.09375 141.304688 373.632812 C 141.304688 379.171875 145.796875 383.664062 151.335938 383.664062 C 156.875 383.664062 161.367188 379.171875 161.367188 373.632812 Z M 161.367188 373.632812 "/>
<path style=" stroke:none;fill-rule:nonzero;fill:rgb(46.27451%,16.470588%,51.372549%);fill-opacity:1;" d="M 162.140625 390.160156 C 162.140625 384.621094 157.648438 380.128906 152.109375 380.128906 C 146.570312 380.128906 142.078125 384.621094 142.078125 390.160156 C 142.078125 395.699219 146.570312 400.191406 152.109375 400.191406 C 157.648438 400.191406 162.140625 395.699219 162.140625 390.160156 Z M 162.140625 390.160156 "/>
<path style=" stroke:none;fill-rule:nonzero;fill:rgb(25.098039%,0%,29.411765%);fill-opacity:1;" d="M 59.765625 141.4375 C 59.765625 135.898438 55.273438 131.40625 49.734375 131.40625 C 44.195312 131.40625 39.703125 135.898438 39.703125 141.4375 C 39.703125 146.976562 44.195312 151.46875 49.734375 151.46875 C 55.273438 151.46875 59.765625 146.976562 59.765625 141.4375 Z M 59.765625 141.4375 "/>
<path style=" stroke:none;fill-rule:nonzero;fill:rgb(0%,26.666667%,10.588235%);fill-opacity:1;" d="M 594.878906 519.910156 C 594.878906 514.371094 590.386719 509.878906 584.847656 509.878906 C 579.308594 509.878906 574.816406 514.371094 574.816406 519.910156 C 574.816406 525.449219 579.308594 529.941406 584.847656 529.941406 C 590.386719 529.941406 594.878906 525.449219 594.878906 519.910156 Z M 594.878906 519.910156 "/>
<path style=" stroke:none;fill-rule:nonzero;fill:rgb(10.588235%,47.058824%,21.568627%);fill-opacity:1;" d="M 641.484375 416.210938 C 641.484375 410.671875 636.992188 406.179688 631.453125 406.179688 C 625.914062 406.179688 621.421875 410.671875 621.421875 416.210938 C 621.421875 421.75 625.914062 426.242188 631.453125 426.242188 C 636.992188 426.242188 641.484375 421.75 641.484375 416.210938 Z M 641.484375 416.210938 "/>
<path style=" stroke:none;fill-rule:nonzero;fill:rgb(35.294118%,68.235294%,38.039216%);fill-opacity:1;" d="M 795.988281 365.265625 C 795.988281 359.726562 791.496094 355.234375 785.957031 355.234375 C 780.417969 355.234375 775.925781 359.726562 775.925781 365.265625 C 775.925781 370.804688 780.417969 375.296875 785.957031 375.296875 C 791.496094 375.296875 795.988281 370.804688 795.988281 365.265625 Z M 795.988281 365.265625 "/>
<path style=" stroke:none;fill-rule:nonzero;fill:rgb(65.098039%,85.882353%,62.745098%);fill-opacity:1;" d="M 162.757812 647.191406 C 162.757812 641.652344 158.265625 637.160156 152.726562 637.160156 C 147.1875 637.160156 142.695312 641.652344 142.695312 647.191406 C 142.695312 652.730469 147.1875 657.222656 152.726562 657.222656 C 158.265625 657.222656 162.757812 652.730469 162.757812 647.191406 Z M 162.757812 647.191406 "/>
<path style=" stroke:none;fill-rule:nonzero;fill:rgb(85.098039%,94.117647%,82.745098%);fill-opacity:1;" d="M 532.207031 377.207031 C 532.207031 371.667969 527.714844 367.175781 522.175781 367.175781 C 516.636719 367.175781 512.144531 371.667969 512.144531 377.207031 C 512.144531 382.746094 516.636719 387.238281 522.175781 387.238281 C 527.714844 387.238281 532.207031 382.746094 532.207031 377.207031 Z M 532.207031 377.207031 "/>
<path style=" stroke:none;fill-rule:nonzero;fill:rgb(96.862745%,96.862745%,96.862745%);fill-opacity:1;" d="M 689.609375 477.335938 C 689.609375 471.796875 685.117188 467.304688 679.578125 467.304688 C 674.039062 467.304688 669.546875 471.796875 669.546875 477.335938 C 669.546875 482.875 674.039062 487.367188 679.578125 487.367188 C 685.117188 487.367188 689.609375 482.875 689.609375 477.335938 Z M 689.609375 477.335938 "/>
<path style=" stroke:none;fill-rule:nonzero;fill:rgb(90.588235%,83.137255%,90.980392%);fill-opacity:1;" d="M 454.035156 602.164062 C 454.035156 596.625 449.542969 592.132812 444.003906 592.132812 C 438.464844 592.132812 433.972656 596.625 433.972656 602.164062 C 433.972656 607.703125 438.464844 612.195312 444.003906 612.195312 C 449.542969 612.195312 454.035156 607.703125 454.035156 602.164062 Z M 454.035156 602.164062 "/>
<path style=" stroke:none;fill-rule:nonzero;fill:rgb(76.078431%,64.705882%,81.176471%);fill-opacity:1;" d="M 293.597656 302.761719 C 293.597656 297.222656 289.105469 292.730469 283.566406 292.730469 C 278.027344 292.730469 273.535156 297.222656 273.535156 302.761719 C 273.535156 308.300781 278.027344 312.792969 283.566406 312.792969 C 289.105469 312.792969 293.597656 308.300781 293.597656 302.761719 Z M 293.597656 302.761719 "/>
<path style=" stroke:none;fill-rule:nonzero;fill:rgb(60%,43.921569%,67.058824%);fill-opacity:1;" d="M 162.535156 636.210938 C 162.535156 630.671875 158.042969 626.179688 152.503906 626.179688 C 146.964844 626.179688 142.472656 630.671875 142.472656 636.210938 C 142.472656 641.75 146.964844 646.242188 152.503906 646.242188 C 158.042969 646.242188 162.535156 641.75 162.535156 636.210938 Z M 162.535156 636.210938 "/>
<path style=" stroke:none;fill-rule:nonzero;fill:rgb(46.27451%,16.470588%,51.372549%);fill-opacity:1;" d="M 196.144531 21.195312 C 196.144531 15.65625 191.652344 11.164062 186.113281 11.164062 C 180.574219 11.164062 176.082031 15.65625 176.082031 21.195312 C 176.082031 26.734375 180.574219 31.226562 186.113281 31.226562 C 191.652344 31.226562 196.144531 26.734375 196.144531 21.195312 Z M 196.144531 21.195312 "/>
<path style=" stroke:none;fill-rule:nonzero;fill:rgb(25.098039%,0%,29.411765%);fill-opacity:1;" d="M 471.164062 542.210938 C 471.164062 536.671875 466.671875 532.179688 461.132812 532.179688 C 455.59375 532.179688 451.101562 536.671875 451.101562 542.210938 C 451.101562 547.75 455.59375 552.242188 461.132812 552.242188 C 466.671875 552.242188 471.164062 547.75 471.164062 542.210938 Z M 471.164062 542.210938 "/>
<path style=" stroke:none;fill-rule:nonzero;fill:rgb(0%,26.666667%,10.588235%);fill-opacity:1;" d="M 753.253906 110.019531 C 753.253906 104.480469 748.761719 99.988281 743.222656 99.988281 C 737.683594 99.988281 733.191406 104.480469 733.191406 110.019531 C 733.191406 115.558594 737.683594 120.050781 743.222656 120.050781 C 748.761719 120.050781 753.253906 115.558594 753.253906 110.019531 Z M 753.253906 110.019531 "/>
<path style=" stroke:none;fill-rule:nonzero;fill:rgb(10.588235%,47.058824%,21.568627%);fill-opacity:1;" d="M 763.960938 14.042969 C 763.960938 8.503906 759.46875 4.011719 753.929688 4.011719 C 748.390625 4.011719 743.898438 8.503906 743.898438 14.042969 C 743.898438 19.582031 748.390625 24.074219 753.929688 24.074219 C 759.46875 24.074219 763.960938 19.582031 763.960938 14.042969 Z M 763.960938 14.042969 "/>
<path style=" stroke:none;fill-rule:nonzero;fill:rgb(35.294118%,68.235294%,38.039216%);fill-opacity:1;" d="M 474.84375 199 C 474.84375 193.460938 470.351562 188.96875 464.8125 188.96875 C 459.273438 188.96875 454.78125 193.460938 454.78125 199 C 454.78125 204.539062 459.273438 209.03125 464.8125 209.03125 C 470.351562 209.03125 474.84375 204.539062 474.84375 199 Z M 474.84375 199 "/>
<path style=" stroke:none;fill-rule:nonzero;fill:rgb(65.098039%,85.882353%,62.745098%);fill-opacity:1;" d="M 24.074219 440.359375 C 24.074219 434.820312 19.582031 430.328125 14.042969 430.328125 C 8.503906 430.328125 4.011719 434.820312 4.011719 440.359375 C 4.011719 445.898438 8.503906 450.390625 14.042969 450.390625 C 19.582031 450.390625 24.074219 445.898438 24.074219 440.359375 Z M 24.074219 440.359375 "/>
<path style=" stroke:none;fill-rule:nonzero;fill:rgb(85.098039%,94.117647%,82.745098%);fill-opacity:1;" d="M 207.582031 717.160156 C 207.582031 711.621094 203.089844 707.128906 197.550781 707.128906 C 192.011719 707.128906 187.519531 711.621094 187.519531 717.160156 C 187.519531 722.699219 192.011719 727.191406 197.550781 727.191406 C 203.089844 727.191406 207.582031 722.699219 207.582031 717.160156 Z M 207.582031 717.160156 "/>
<path style=" stroke:none;fill-rule:nonzero;fill:rgb(96.862745%,96.862745%,96.862745%);fill-opacity:1;" d="M 37.917969 284.980469 C 37.917969 279.441406 33.425781 274.949219 27.886719 274.949219 C 22.347656 274.949219 17.855469 279.441406 17.855469 284.980469 C 17.855469 290.519531 22.347656 295.011719 27.886719 295.011719 C 33.425781 295.011719 37.917969 290.519531 37.917969 284.980469 Z M 37.917969 284.980469 "/>
<path style=" stroke:none;fill-rule:nonzero;fill:rgb(90.588235%,83.137255%,90.980392%);fill-opacity:1;" d="M 488.207031 361.410156 C 488.207031 355.871094 483.714844 351.378906 478.175781 351.378906 C 472.636719 351.378906 468.144531 355.871094 468.144531 361.410156 C 468.144531 366.949219 472.636719 371.441406 478.175781 371.441406 C 483.714844 371.441406 488.207031 366.949219 488.207031 361.410156 Z M 488.207031 361.410156 "/>
<path style=" stroke:none;fill-rule:nonzero;fill:rgb(76.078431%,64.705882%,81.176471%);fill-opacity:1;" d="M 496.980469 420.851562 C 496.980469 415.3125 492.488281 410.820312 486.949219 410.820312 C 481.410156 410.820312 476.917969 415.3125 476.917969 420.851562 C 476.917969 426.390625 481.410156 430.882812 486.949219 430.882812 C 492.488281 430.882812 496.980469 426.390625 496.980469 420.851562 Z M 496.980469 420.851562 "/>
<path style=" stroke:none;fill-rule:nonzero;fill:rgb(60%,43.921569%,67.058824%);fill-opacity:1;" d="M 122.253906 130.328125 C 122.253906 124.789062 117.761719 120.296875 112.222656 120.296875 C 106.683594 120.296875 102.191406 124.789062 102.191406 130.328125 C 102.191406 135.867188 106.683594 140.359375 112.222656 140.359375 C 117.761719 140.359375 122.253906 135.867188 122.253906 130.328125 Z M 122.253906 130.328125 "/>
<path style=" stroke:none;fill-rule:nonzero;fill:rgb(46.27451%,16.470588%,51.372549%);fill-opacity:1;" d="M 732.761719 275.605469 C 732.761719 270.066406 728.269531 265.574219 722.730469 265.574219 C 717.191406 265.574219 712.699219 270.066406 712.699219 275.605469 C 712.699219 281.144531 717.191406 285.636719 722.730469 285.636719 C 728.269531 285.636719 732.761719 281.144531 732.761719 275.605469 Z M 732.761719 275.605469 "/>
</g>
</svg>
